# xmcd CD database file
# Copyright (C) 1993-1998 Ti Kan
#
# Track frame offsets:
#	150
#	9300
#	21658
#	33778
#	46080
#	61343
#	72315
#	81173
#	92065
#	106648
#	115033
#	128020
#	135493
#	144920
#
# Disc length: 2100 seconds
#
# Revision: 0
# Processed by: cddbd v1.4b41PL1 Copyright (c) Steve Scherf et al.
# Submitted via: CDmax 1.5.4
#
DISCID=a908320e
DTITLE=Various Artist - Great Country Hits - CD 2 of 2
DYEAR=1900
DGENRE=
TTITLE0=Rawhide (Frankie Laine)
TTITLE1=Stand By Your Man (Lynn Anderson)
TTITLE2=Born To Lose (Jerry Lee Lewis)
TTITLE3=I Walk The Line (Johnny Cash)
TTITLE4=For The Good Times (Kenny Rogers)
TTITLE5=Send Me The Pillow That You Dream On (Hank Locklin)
TTITLE6=Billy Bayou (Roger Miller)
TTITLE7=More And More (Webb Pierce)
TTITLE8=Harper Walley P.T.A. (Jeannie C. Riley)
TTITLE9=Crazy Fool (Carl Mann)
TTITLE10=Gentle On My Mind (Patti Page)
TTITLE11=Second Hand Rose (Roy Drusky)
TTITLE12=Six Days On The Road (Dave Dudley)
TTITLE13=Folsom Prison Blues (Johnny Cash)
EXTD=
EXTT0=
EXTT1=
EXTT2=
EXTT3=
EXTT4=
EXTT5=
EXTT6=
EXTT7=
EXTT8=
EXTT9=
EXTT10=
EXTT11=
EXTT12=
EXTT13=
PLAYORDER=
